<?xml version="1.0" encoding="UTF-8" standalone="no"?><svg xmlns="http://www.w3.org/2000/svg" xmlns:xlink="http://www.w3.org/1999/xlink" contentStyleType="text/css" height="1048px" preserveAspectRatio="none" style="width:759px;height:1048px;background:#FFFFFF;" version="1.1" viewBox="0 0 759 1048" width="759px" zoomAndPan="magnify"><defs/><g><rect fill="none" height="942.4141" style="stroke:#000000;stroke-width:1.5;" width="742" x="10" y="53.2969"/><rect fill="none" height="207.4063" style="stroke:#000000;stroke-width:1.5;" width="695" x="30" y="206.9609"/><rect fill="none" height="90.2031" style="stroke:#000000;stroke-width:1.5;" width="498.5" x="40" y="317.1641"/><rect fill="none" height="558.3438" style="stroke:#000000;stroke-width:1.5;" width="722" x="20" y="430.3672"/><rect fill="none" height="207.4063" style="stroke:#000000;stroke-width:1.5;" width="702" x="30" y="584.0313"/><rect fill="none" height="90.2031" style="stroke:#000000;stroke-width:1.5;" width="498.5" x="40" y="694.2344"/><rect fill="none" height="90.2031" style="stroke:#000000;stroke-width:1.5;" width="498.5" x="40" y="891.5078"/><line style="stroke:#181818;stroke-width:0.5;stroke-dasharray:5.0,5.0;" x1="111" x2="111" y1="36.2969" y2="1012.7109"/><line style="stroke:#181818;stroke-width:0.5;stroke-dasharray:5.0,5.0;" x1="489.5" x2="489.5" y1="36.2969" y2="1012.7109"/><rect fill="#E2E2F0" height="30.2969" rx="2.5" ry="2.5" style="stroke:#181818;stroke-width:0.5;" width="122" x="50" y="5"/><text fill="#000000" font-family="sans-serif" font-size="14" lengthAdjust="spacing" textLength="108" x="57" y="24.9951">Administrateur</text><rect fill="#E2E2F0" height="30.2969" rx="2.5" ry="2.5" style="stroke:#181818;stroke-width:0.5;" width="122" x="50" y="1011.7109"/><text fill="#000000" font-family="sans-serif" font-size="14" lengthAdjust="spacing" textLength="108" x="57" y="1031.7061">Administrateur</text><rect fill="#E2E2F0" height="30.2969" rx="2.5" ry="2.5" style="stroke:#181818;stroke-width:0.5;" width="77" x="451.5" y="5"/><text fill="#000000" font-family="sans-serif" font-size="14" lengthAdjust="spacing" textLength="63" x="458.5" y="24.9951">Système</text><rect fill="#E2E2F0" height="30.2969" rx="2.5" ry="2.5" style="stroke:#181818;stroke-width:0.5;" width="77" x="451.5" y="1011.7109"/><text fill="#000000" font-family="sans-serif" font-size="14" lengthAdjust="spacing" textLength="63" x="458.5" y="1031.7061">Système</text><path d="M10,53.2969 L76,53.2969 L76,60.4297 L66,70.4297 L10,70.4297 L10,53.2969 " fill="#EEEEEE" style="stroke:#000000;stroke-width:1.5;"/><rect fill="none" height="942.4141" style="stroke:#000000;stroke-width:1.5;" width="742" x="10" y="53.2969"/><text fill="#000000" font-family="sans-serif" font-size="13" font-weight="bold" lengthAdjust="spacing" textLength="21" x="25" y="66.3638">alt</text><text fill="#000000" font-family="sans-serif" font-size="11" font-weight="bold" lengthAdjust="spacing" textLength="226" x="91" y="65.5073">[Modification d'un objet célestre]</text><polygon fill="#181818" points="478,87.5625,488,91.5625,478,95.5625,482,91.5625" style="stroke:#181818;stroke-width:1.0;"/><line style="stroke:#181818;stroke-width:1.0;" x1="111" x2="484" y1="91.5625" y2="91.5625"/><text fill="#000000" font-family="sans-serif" font-size="13" lengthAdjust="spacing" textLength="288" x="118" y="86.4966">Demande de modification d'un objet célestre</text><polygon fill="#181818" points="122,116.6953,112,120.6953,122,124.6953,118,120.6953" style="stroke:#181818;stroke-width:1.0;"/><line style="stroke:#181818;stroke-width:1.0;" x1="116" x2="489" y1="120.6953" y2="120.6953"/><text fill="#000000" font-family="sans-serif" font-size="13" lengthAdjust="spacing" textLength="355" x="128" y="115.6294">Affiche le formulaire de modification d'un objet célestre</text><polygon fill="#181818" points="478,145.8281,488,149.8281,478,153.8281,482,149.8281" style="stroke:#181818;stroke-width:1.0;"/><line style="stroke:#181818;stroke-width:1.0;" x1="111" x2="484" y1="149.8281" y2="149.8281"/><text fill="#000000" font-family="sans-serif" font-size="13" lengthAdjust="spacing" textLength="196" x="118" y="144.7622">Envoie formulaire modification</text><line style="stroke:#181818;stroke-width:1.0;" x1="490" x2="532" y1="178.9609" y2="178.9609"/><line style="stroke:#181818;stroke-width:1.0;" x1="532" x2="532" y1="178.9609" y2="191.9609"/><line style="stroke:#181818;stroke-width:1.0;" x1="491" x2="532" y1="191.9609" y2="191.9609"/><polygon fill="#181818" points="501,187.9609,491,191.9609,501,195.9609,497,191.9609" style="stroke:#181818;stroke-width:1.0;"/><text fill="#000000" font-family="sans-serif" font-size="13" lengthAdjust="spacing" textLength="153" x="497" y="173.895">Validation du formulaire</text><path d="M30,206.9609 L96,206.9609 L96,214.0938 L86,224.0938 L30,224.0938 L30,206.9609 " fill="#EEEEEE" style="stroke:#000000;stroke-width:1.5;"/><rect fill="none" height="207.4063" style="stroke:#000000;stroke-width:1.5;" width="695" x="30" y="206.9609"/><text fill="#000000" font-family="sans-serif" font-size="13" font-weight="bold" lengthAdjust="spacing" textLength="21" x="45" y="220.0278">alt</text><text fill="#000000" font-family="sans-serif" font-size="11" font-weight="bold" lengthAdjust="spacing" textLength="137" x="111" y="219.1714">[Formulaire invalide]</text><polygon fill="#181818" points="122,241.2266,112,245.2266,122,249.2266,118,245.2266" style="stroke:#181818;stroke-width:1.0;"/><line style="stroke:#181818;stroke-width:1.0;" x1="116" x2="489" y1="245.2266" y2="245.2266"/><text fill="#000000" font-family="sans-serif" font-size="13" lengthAdjust="spacing" textLength="242" x="128" y="240.1606">Affiche une validation de modification</text><line style="stroke:#000000;stroke-width:1.0;stroke-dasharray:2.0,2.0;" x1="30" x2="725" y1="254.2266" y2="254.2266"/><text fill="#000000" font-family="sans-serif" font-size="11" font-weight="bold" lengthAdjust="spacing" textLength="125" x="35" y="264.437">[Formulaire valide]</text><line style="stroke:#181818;stroke-width:1.0;" x1="490" x2="532" y1="289.1641" y2="289.1641"/><line style="stroke:#181818;stroke-width:1.0;" x1="532" x2="532" y1="289.1641" y2="302.1641"/><line style="stroke:#181818;stroke-width:1.0;" x1="491" x2="532" y1="302.1641" y2="302.1641"/><polygon fill="#181818" points="501,298.1641,491,302.1641,501,306.1641,497,302.1641" style="stroke:#181818;stroke-width:1.0;"/><text fill="#000000" font-family="sans-serif" font-size="13" lengthAdjust="spacing" textLength="216" x="497" y="284.0981">Enregistrement des modifications</text><path d="M40,317.1641 L106,317.1641 L106,324.2969 L96,334.2969 L40,334.2969 L40,317.1641 " fill="#EEEEEE" style="stroke:#000000;stroke-width:1.5;"/><rect fill="none" height="90.2031" style="stroke:#000000;stroke-width:1.5;" width="498.5" x="40" y="317.1641"/><text fill="#000000" font-family="sans-serif" font-size="13" font-weight="bold" lengthAdjust="spacing" textLength="21" x="55" y="330.231">alt</text><text fill="#000000" font-family="sans-serif" font-size="11" font-weight="bold" lengthAdjust="spacing" textLength="158" x="121" y="329.3745">[Erreurs de sauvegarde]</text><polygon fill="#181818" points="122,351.4297,112,355.4297,122,359.4297,118,355.4297" style="stroke:#181818;stroke-width:1.0;"/><line style="stroke:#181818;stroke-width:1.0;" x1="116" x2="489" y1="355.4297" y2="355.4297"/><text fill="#000000" font-family="sans-serif" font-size="13" lengthAdjust="spacing" textLength="138" x="128" y="350.3638">Affichage des erreurs</text><line style="stroke:#000000;stroke-width:1.0;stroke-dasharray:2.0,2.0;" x1="40" x2="538.5" y1="364.4297" y2="364.4297"/><text fill="#000000" font-family="sans-serif" font-size="11" font-weight="bold" lengthAdjust="spacing" textLength="198" x="45" y="374.6401">[Pas d'erreurs de sauvegarde]</text><polygon fill="#181818" points="122,395.3672,112,399.3672,122,403.3672,118,399.3672" style="stroke:#181818;stroke-width:1.0;"/><line style="stroke:#181818;stroke-width:1.0;" x1="116" x2="489" y1="399.3672" y2="399.3672"/><text fill="#000000" font-family="sans-serif" font-size="13" lengthAdjust="spacing" textLength="245" x="128" y="394.3013">Affichage validation de la modification</text><line style="stroke:#000000;stroke-width:1.0;stroke-dasharray:2.0,2.0;" x1="10" x2="752" y1="422.3672" y2="422.3672"/><path d="M20,430.3672 L86,430.3672 L86,437.5 L76,447.5 L20,447.5 L20,430.3672 " fill="#EEEEEE" style="stroke:#000000;stroke-width:1.5;"/><rect fill="none" height="558.3438" style="stroke:#000000;stroke-width:1.5;" width="722" x="20" y="430.3672"/><text fill="#000000" font-family="sans-serif" font-size="13" font-weight="bold" lengthAdjust="spacing" textLength="21" x="35" y="443.4341">alt</text><text fill="#000000" font-family="sans-serif" font-size="11" font-weight="bold" lengthAdjust="spacing" textLength="177" x="101" y="442.5776">[Ajout d'un objet célestre]</text><polygon fill="#181818" points="478,464.6328,488,468.6328,478,472.6328,482,468.6328" style="stroke:#181818;stroke-width:1.0;"/><line style="stroke:#181818;stroke-width:1.0;" x1="111" x2="484" y1="468.6328" y2="468.6328"/><text fill="#000000" font-family="sans-serif" font-size="13" lengthAdjust="spacing" textLength="232" x="118" y="463.5669">Demande d'ajout d'un objet célestre</text><polygon fill="#181818" points="122,493.7656,112,497.7656,122,501.7656,118,497.7656" style="stroke:#181818;stroke-width:1.0;"/><line style="stroke:#181818;stroke-width:1.0;" x1="116" x2="489" y1="497.7656" y2="497.7656"/><text fill="#000000" font-family="sans-serif" font-size="13" lengthAdjust="spacing" textLength="328" x="128" y="492.6997">Affiche le formulaire de création d'un objet célestre</text><polygon fill="#181818" points="478,522.8984,488,526.8984,478,530.8984,482,526.8984" style="stroke:#181818;stroke-width:1.0;"/><line style="stroke:#181818;stroke-width:1.0;" x1="111" x2="484" y1="526.8984" y2="526.8984"/><text fill="#000000" font-family="sans-serif" font-size="13" lengthAdjust="spacing" textLength="209" x="118" y="521.8325">Envoie du formulaire de création</text><line style="stroke:#181818;stroke-width:1.0;" x1="490" x2="532" y1="556.0313" y2="556.0313"/><line style="stroke:#181818;stroke-width:1.0;" x1="532" x2="532" y1="556.0313" y2="569.0313"/><line style="stroke:#181818;stroke-width:1.0;" x1="491" x2="532" y1="569.0313" y2="569.0313"/><polygon fill="#181818" points="501,565.0313,491,569.0313,501,573.0313,497,569.0313" style="stroke:#181818;stroke-width:1.0;"/><text fill="#000000" font-family="sans-serif" font-size="13" lengthAdjust="spacing" textLength="153" x="497" y="550.9653">Validation du formulaire</text><path d="M30,584.0313 L96,584.0313 L96,591.1641 L86,601.1641 L30,601.1641 L30,584.0313 " fill="#EEEEEE" style="stroke:#000000;stroke-width:1.5;"/><rect fill="none" height="207.4063" style="stroke:#000000;stroke-width:1.5;" width="702" x="30" y="584.0313"/><text fill="#000000" font-family="sans-serif" font-size="13" font-weight="bold" lengthAdjust="spacing" textLength="21" x="45" y="597.0981">alt</text><text fill="#000000" font-family="sans-serif" font-size="11" font-weight="bold" lengthAdjust="spacing" textLength="137" x="111" y="596.2417">[Formulaire invalide]</text><polygon fill="#181818" points="122,618.2969,112,622.2969,122,626.2969,118,622.2969" style="stroke:#181818;stroke-width:1.0;"/><line style="stroke:#181818;stroke-width:1.0;" x1="116" x2="489" y1="622.2969" y2="622.2969"/><text fill="#000000" font-family="sans-serif" font-size="13" lengthAdjust="spacing" textLength="138" x="128" y="617.231">Affichage des erreurs</text><line style="stroke:#000000;stroke-width:1.0;stroke-dasharray:2.0,2.0;" x1="30" x2="732" y1="631.2969" y2="631.2969"/><text fill="#000000" font-family="sans-serif" font-size="11" font-weight="bold" lengthAdjust="spacing" textLength="125" x="35" y="641.5073">[Formulaire valide]</text><line style="stroke:#181818;stroke-width:1.0;" x1="490" x2="532" y1="666.2344" y2="666.2344"/><line style="stroke:#181818;stroke-width:1.0;" x1="532" x2="532" y1="666.2344" y2="679.2344"/><line style="stroke:#181818;stroke-width:1.0;" x1="491" x2="532" y1="679.2344" y2="679.2344"/><polygon fill="#181818" points="501,675.2344,491,679.2344,501,683.2344,497,679.2344" style="stroke:#181818;stroke-width:1.0;"/><text fill="#000000" font-family="sans-serif" font-size="13" lengthAdjust="spacing" textLength="223" x="497" y="661.1685">Enregistrement de l'object célestre</text><path d="M40,694.2344 L106,694.2344 L106,701.3672 L96,711.3672 L40,711.3672 L40,694.2344 " fill="#EEEEEE" style="stroke:#000000;stroke-width:1.5;"/><rect fill="none" height="90.2031" style="stroke:#000000;stroke-width:1.5;" width="498.5" x="40" y="694.2344"/><text fill="#000000" font-family="sans-serif" font-size="13" font-weight="bold" lengthAdjust="spacing" textLength="21" x="55" y="707.3013">alt</text><text fill="#000000" font-family="sans-serif" font-size="11" font-weight="bold" lengthAdjust="spacing" textLength="158" x="121" y="706.4448">[Erreurs de sauvegarde]</text><polygon fill="#181818" points="122,728.5,112,732.5,122,736.5,118,732.5" style="stroke:#181818;stroke-width:1.0;"/><line style="stroke:#181818;stroke-width:1.0;" x1="116" x2="489" y1="732.5" y2="732.5"/><text fill="#000000" font-family="sans-serif" font-size="13" lengthAdjust="spacing" textLength="138" x="128" y="727.4341">Affichage des erreurs</text><line style="stroke:#000000;stroke-width:1.0;stroke-dasharray:2.0,2.0;" x1="40" x2="538.5" y1="741.5" y2="741.5"/><text fill="#000000" font-family="sans-serif" font-size="11" font-weight="bold" lengthAdjust="spacing" textLength="198" x="45" y="751.7104">[Pas d'erreurs de sauvegarde]</text><polygon fill="#181818" points="122,772.4375,112,776.4375,122,780.4375,118,776.4375" style="stroke:#181818;stroke-width:1.0;"/><line style="stroke:#181818;stroke-width:1.0;" x1="116" x2="489" y1="776.4375" y2="776.4375"/><text fill="#000000" font-family="sans-serif" font-size="13" lengthAdjust="spacing" textLength="286" x="128" y="771.3716">Affichage validation d'ajout de l'objet céleste</text><line style="stroke:#000000;stroke-width:1.0;stroke-dasharray:2.0,2.0;" x1="20" x2="742" y1="799.4375" y2="799.4375"/><text fill="#000000" font-family="sans-serif" font-size="11" font-weight="bold" lengthAdjust="spacing" textLength="197" x="25" y="809.6479">[Supprimer un objet célestre]</text><polygon fill="#181818" points="478,830.375,488,834.375,478,838.375,482,834.375" style="stroke:#181818;stroke-width:1.0;"/><line style="stroke:#181818;stroke-width:1.0;" x1="111" x2="484" y1="834.375" y2="834.375"/><text fill="#000000" font-family="sans-serif" font-size="13" lengthAdjust="spacing" textLength="278" x="118" y="829.3091">Demande de supression d'un objet célestre</text><line style="stroke:#181818;stroke-width:1.0;" x1="490" x2="532" y1="863.5078" y2="863.5078"/><line style="stroke:#181818;stroke-width:1.0;" x1="532" x2="532" y1="863.5078" y2="876.5078"/><line style="stroke:#181818;stroke-width:1.0;" x1="491" x2="532" y1="876.5078" y2="876.5078"/><polygon fill="#181818" points="501,872.5078,491,876.5078,501,880.5078,497,876.5078" style="stroke:#181818;stroke-width:1.0;"/><text fill="#000000" font-family="sans-serif" font-size="13" lengthAdjust="spacing" textLength="187" x="497" y="858.4419">Supression de l'objet célestre</text><path d="M40,891.5078 L106,891.5078 L106,898.6406 L96,908.6406 L40,908.6406 L40,891.5078 " fill="#EEEEEE" style="stroke:#000000;stroke-width:1.5;"/><rect fill="none" height="90.2031" style="stroke:#000000;stroke-width:1.5;" width="498.5" x="40" y="891.5078"/><text fill="#000000" font-family="sans-serif" font-size="13" font-weight="bold" lengthAdjust="spacing" textLength="21" x="55" y="904.5747">alt</text><text fill="#000000" font-family="sans-serif" font-size="11" font-weight="bold" lengthAdjust="spacing" textLength="162" x="121" y="903.7183">[Erreurs de suppression]</text><polygon fill="#181818" points="122,925.7734,112,929.7734,122,933.7734,118,929.7734" style="stroke:#181818;stroke-width:1.0;"/><line style="stroke:#181818;stroke-width:1.0;" x1="116" x2="489" y1="929.7734" y2="929.7734"/><text fill="#000000" font-family="sans-serif" font-size="13" lengthAdjust="spacing" textLength="138" x="128" y="924.7075">Affichage des erreurs</text><line style="stroke:#000000;stroke-width:1.0;stroke-dasharray:2.0,2.0;" x1="40" x2="538.5" y1="938.7734" y2="938.7734"/><text fill="#000000" font-family="sans-serif" font-size="11" font-weight="bold" lengthAdjust="spacing" textLength="202" x="45" y="948.9839">[Pas d'erreurs de suppression]</text><polygon fill="#181818" points="122,969.7109,112,973.7109,122,977.7109,118,973.7109" style="stroke:#181818;stroke-width:1.0;"/><line style="stroke:#181818;stroke-width:1.0;" x1="116" x2="489" y1="973.7109" y2="973.7109"/><text fill="#000000" font-family="sans-serif" font-size="13" lengthAdjust="spacing" textLength="340" x="128" y="968.645">Affichage validation de suppression de l'objet céleste</text><!--MD5=[86263f8cebbc4500b3d47847e51511ec]
@startuml
alt Modification d'un objet célestre
Administrateur -> Système : Demande de modification d'un objet célestre
Système -> Administrateur : Affiche le formulaire de modification d'un objet célestre
Administrateur -> Système : Envoie formulaire modification
Système -> Système : Validation du formulaire
alt Formulaire invalide
Système -> Administrateur : Affiche une validation de modification
else Formulaire valide
Système -> Système : Enregistrement des modifications
alt Erreurs de sauvegarde
Système -> Administrateur : Affichage des erreurs
else Pas d'erreurs de sauvegarde
Système -> Administrateur : Affichage validation de la modification
end
end
else
alt Ajout d'un objet célestre
Administrateur -> Système : Demande d'ajout d'un objet célestre
Système -> Administrateur : Affiche le formulaire de création d'un objet célestre
Administrateur -> Système : Envoie du formulaire de création
Système -> Système : Validation du formulaire
alt Formulaire invalide
Système -> Administrateur : Affichage des erreurs
else Formulaire valide
Système -> Système : Enregistrement de l'object célestre
alt Erreurs de sauvegarde 
Système -> Administrateur : Affichage des erreurs
else Pas d'erreurs de sauvegarde
Système -> Administrateur : Affichage validation d'ajout de l'objet céleste
end
end
else Supprimer un objet célestre
Administrateur -> Système : Demande de supression d'un objet célestre
Système -> Système : Supression de l'objet célestre
alt Erreurs de suppression
Système -> Administrateur : Affichage des erreurs
else Pas d'erreurs de suppression
Système -> Administrateur : Affichage validation de suppression de l'objet céleste
end
end
end
@enduml

PlantUML version 1.2022.13beta2(Unknown compile time)
(GPL source distribution)
Java Runtime: Java(TM) SE Runtime Environment
JVM: Java HotSpot(TM) 64-Bit Server VM
Default Encoding: UTF-8
Language: en
Country: US
--></g></svg>