<?xml version="1.0" encoding="UTF-8" standalone="no"?><svg xmlns="http://www.w3.org/2000/svg" xmlns:xlink="http://www.w3.org/1999/xlink" contentStyleType="text/css" height="797px" preserveAspectRatio="none" style="width:749px;height:797px;background:#FFFFFF;" version="1.1" viewBox="0 0 749 797" width="749px" zoomAndPan="magnify"><defs/><g><rect fill="none" height="691.875" style="stroke:#000000;stroke-width:1.5;" width="732" x="10" y="53.2969"/><rect fill="none" height="558.3438" style="stroke:#000000;stroke-width:1.5;" width="712" x="20" y="179.8281"/><rect fill="none" height="207.4063" style="stroke:#000000;stroke-width:1.5;" width="692" x="30" y="333.4922"/><rect fill="none" height="90.2031" style="stroke:#000000;stroke-width:1.5;" width="495.5" x="40" y="443.6953"/><rect fill="none" height="90.2031" style="stroke:#000000;stroke-width:1.5;" width="495.5" x="40" y="640.9688"/><line style="stroke:#181818;stroke-width:0.5;stroke-dasharray:5.0,5.0;" x1="111" x2="111" y1="36.2969" y2="762.1719"/><line style="stroke:#181818;stroke-width:0.5;stroke-dasharray:5.0,5.0;" x1="486.5" x2="486.5" y1="36.2969" y2="762.1719"/><rect fill="#E2E2F0" height="30.2969" rx="2.5" ry="2.5" style="stroke:#181818;stroke-width:0.5;" width="122" x="50" y="5"/><text fill="#000000" font-family="sans-serif" font-size="14" lengthAdjust="spacing" textLength="108" x="57" y="24.9951">Administrateur</text><rect fill="#E2E2F0" height="30.2969" rx="2.5" ry="2.5" style="stroke:#181818;stroke-width:0.5;" width="122" x="50" y="761.1719"/><text fill="#000000" font-family="sans-serif" font-size="14" lengthAdjust="spacing" textLength="108" x="57" y="781.167">Administrateur</text><rect fill="#E2E2F0" height="30.2969" rx="2.5" ry="2.5" style="stroke:#181818;stroke-width:0.5;" width="77" x="448.5" y="5"/><text fill="#000000" font-family="sans-serif" font-size="14" lengthAdjust="spacing" textLength="63" x="455.5" y="24.9951">Système</text><rect fill="#E2E2F0" height="30.2969" rx="2.5" ry="2.5" style="stroke:#181818;stroke-width:0.5;" width="77" x="448.5" y="761.1719"/><text fill="#000000" font-family="sans-serif" font-size="14" lengthAdjust="spacing" textLength="63" x="455.5" y="781.167">Système</text><path d="M10,53.2969 L76,53.2969 L76,60.4297 L66,70.4297 L10,70.4297 L10,53.2969 " fill="#EEEEEE" style="stroke:#000000;stroke-width:1.5;"/><rect fill="none" height="691.875" style="stroke:#000000;stroke-width:1.5;" width="732" x="10" y="53.2969"/><text fill="#000000" font-family="sans-serif" font-size="13" font-weight="bold" lengthAdjust="spacing" textLength="21" x="25" y="66.3638">alt</text><text fill="#000000" font-family="sans-serif" font-size="11" font-weight="bold" lengthAdjust="spacing" textLength="331" x="91" y="65.5073">[Modification durée de validité des observations]</text><polygon fill="#181818" points="475,87.5625,485,91.5625,475,95.5625,479,91.5625" style="stroke:#181818;stroke-width:1.0;"/><line style="stroke:#181818;stroke-width:1.0;" x1="111" x2="481" y1="91.5625" y2="91.5625"/><text fill="#000000" font-family="sans-serif" font-size="13" lengthAdjust="spacing" textLength="285" x="118" y="86.4966">Modifie la durée de validité des observations</text><line style="stroke:#181818;stroke-width:1.0;" x1="487" x2="529" y1="120.6953" y2="120.6953"/><line style="stroke:#181818;stroke-width:1.0;" x1="529" x2="529" y1="120.6953" y2="133.6953"/><line style="stroke:#181818;stroke-width:1.0;" x1="488" x2="529" y1="133.6953" y2="133.6953"/><polygon fill="#181818" points="498,129.6953,488,133.6953,498,137.6953,494,133.6953" style="stroke:#181818;stroke-width:1.0;"/><text fill="#000000" font-family="sans-serif" font-size="13" lengthAdjust="spacing" textLength="175" x="494" y="115.6294">Enregistrement de la durée</text><polygon fill="#181818" points="122,158.8281,112,162.8281,122,166.8281,118,162.8281" style="stroke:#181818;stroke-width:1.0;"/><line style="stroke:#181818;stroke-width:1.0;" x1="116" x2="486" y1="162.8281" y2="162.8281"/><text fill="#000000" font-family="sans-serif" font-size="13" lengthAdjust="spacing" textLength="245" x="128" y="157.7622">Affichage validation de la modification</text><line style="stroke:#000000;stroke-width:1.0;stroke-dasharray:2.0,2.0;" x1="10" x2="742" y1="171.8281" y2="171.8281"/><path d="M20,179.8281 L86,179.8281 L86,186.9609 L76,196.9609 L20,196.9609 L20,179.8281 " fill="#EEEEEE" style="stroke:#000000;stroke-width:1.5;"/><rect fill="none" height="558.3438" style="stroke:#000000;stroke-width:1.5;" width="712" x="20" y="179.8281"/><text fill="#000000" font-family="sans-serif" font-size="13" font-weight="bold" lengthAdjust="spacing" textLength="21" x="35" y="192.895">alt</text><text fill="#000000" font-family="sans-serif" font-size="11" font-weight="bold" lengthAdjust="spacing" textLength="228" x="101" y="192.0386">[Modification d'une observaation]</text><polygon fill="#181818" points="475,214.0938,485,218.0938,475,222.0938,479,218.0938" style="stroke:#181818;stroke-width:1.0;"/><line style="stroke:#181818;stroke-width:1.0;" x1="111" x2="481" y1="218.0938" y2="218.0938"/><text fill="#000000" font-family="sans-serif" font-size="13" lengthAdjust="spacing" textLength="285" x="118" y="213.0278">Demande de modification d'une observation</text><polygon fill="#181818" points="122,243.2266,112,247.2266,122,251.2266,118,247.2266" style="stroke:#181818;stroke-width:1.0;"/><line style="stroke:#181818;stroke-width:1.0;" x1="116" x2="486" y1="247.2266" y2="247.2266"/><text fill="#000000" font-family="sans-serif" font-size="13" lengthAdjust="spacing" textLength="352" x="128" y="242.1606">Affiche le formulaire de modification d'une observation</text><polygon fill="#181818" points="475,272.3594,485,276.3594,475,280.3594,479,276.3594" style="stroke:#181818;stroke-width:1.0;"/><line style="stroke:#181818;stroke-width:1.0;" x1="111" x2="481" y1="276.3594" y2="276.3594"/><text fill="#000000" font-family="sans-serif" font-size="13" lengthAdjust="spacing" textLength="196" x="118" y="271.2935">Envoie formulaire modification</text><line style="stroke:#181818;stroke-width:1.0;" x1="487" x2="529" y1="305.4922" y2="305.4922"/><line style="stroke:#181818;stroke-width:1.0;" x1="529" x2="529" y1="305.4922" y2="318.4922"/><line style="stroke:#181818;stroke-width:1.0;" x1="488" x2="529" y1="318.4922" y2="318.4922"/><polygon fill="#181818" points="498,314.4922,488,318.4922,498,322.4922,494,318.4922" style="stroke:#181818;stroke-width:1.0;"/><text fill="#000000" font-family="sans-serif" font-size="13" lengthAdjust="spacing" textLength="153" x="494" y="300.4263">Validation du formulaire</text><path d="M30,333.4922 L96,333.4922 L96,340.625 L86,350.625 L30,350.625 L30,333.4922 " fill="#EEEEEE" style="stroke:#000000;stroke-width:1.5;"/><rect fill="none" height="207.4063" style="stroke:#000000;stroke-width:1.5;" width="692" x="30" y="333.4922"/><text fill="#000000" font-family="sans-serif" font-size="13" font-weight="bold" lengthAdjust="spacing" textLength="21" x="45" y="346.5591">alt</text><text fill="#000000" font-family="sans-serif" font-size="11" font-weight="bold" lengthAdjust="spacing" textLength="137" x="111" y="345.7026">[Formulaire invalide]</text><polygon fill="#181818" points="122,367.7578,112,371.7578,122,375.7578,118,371.7578" style="stroke:#181818;stroke-width:1.0;"/><line style="stroke:#181818;stroke-width:1.0;" x1="116" x2="486" y1="371.7578" y2="371.7578"/><text fill="#000000" font-family="sans-serif" font-size="13" lengthAdjust="spacing" textLength="138" x="128" y="366.6919">Affichage des erreurs</text><line style="stroke:#000000;stroke-width:1.0;stroke-dasharray:2.0,2.0;" x1="30" x2="722" y1="380.7578" y2="380.7578"/><text fill="#000000" font-family="sans-serif" font-size="11" font-weight="bold" lengthAdjust="spacing" textLength="125" x="35" y="390.9683">[Formulaire valide]</text><line style="stroke:#181818;stroke-width:1.0;" x1="487" x2="529" y1="415.6953" y2="415.6953"/><line style="stroke:#181818;stroke-width:1.0;" x1="529" x2="529" y1="415.6953" y2="428.6953"/><line style="stroke:#181818;stroke-width:1.0;" x1="488" x2="529" y1="428.6953" y2="428.6953"/><polygon fill="#181818" points="498,424.6953,488,428.6953,498,432.6953,494,428.6953" style="stroke:#181818;stroke-width:1.0;"/><text fill="#000000" font-family="sans-serif" font-size="13" lengthAdjust="spacing" textLength="216" x="494" y="410.6294">Enregistrement des modifications</text><path d="M40,443.6953 L106,443.6953 L106,450.8281 L96,460.8281 L40,460.8281 L40,443.6953 " fill="#EEEEEE" style="stroke:#000000;stroke-width:1.5;"/><rect fill="none" height="90.2031" style="stroke:#000000;stroke-width:1.5;" width="495.5" x="40" y="443.6953"/><text fill="#000000" font-family="sans-serif" font-size="13" font-weight="bold" lengthAdjust="spacing" textLength="21" x="55" y="456.7622">alt</text><text fill="#000000" font-family="sans-serif" font-size="11" font-weight="bold" lengthAdjust="spacing" textLength="158" x="121" y="455.9058">[Erreurs de sauvegarde]</text><polygon fill="#181818" points="122,477.9609,112,481.9609,122,485.9609,118,481.9609" style="stroke:#181818;stroke-width:1.0;"/><line style="stroke:#181818;stroke-width:1.0;" x1="116" x2="486" y1="481.9609" y2="481.9609"/><text fill="#000000" font-family="sans-serif" font-size="13" lengthAdjust="spacing" textLength="138" x="128" y="476.895">Affichage des erreurs</text><line style="stroke:#000000;stroke-width:1.0;stroke-dasharray:2.0,2.0;" x1="40" x2="535.5" y1="490.9609" y2="490.9609"/><text fill="#000000" font-family="sans-serif" font-size="11" font-weight="bold" lengthAdjust="spacing" textLength="198" x="45" y="501.1714">[Pas d'erreurs de sauvegarde]</text><polygon fill="#181818" points="122,521.8984,112,525.8984,122,529.8984,118,525.8984" style="stroke:#181818;stroke-width:1.0;"/><line style="stroke:#181818;stroke-width:1.0;" x1="116" x2="486" y1="525.8984" y2="525.8984"/><text fill="#000000" font-family="sans-serif" font-size="13" lengthAdjust="spacing" textLength="242" x="128" y="520.8325">Affiche une validation de modification</text><line style="stroke:#000000;stroke-width:1.0;stroke-dasharray:2.0,2.0;" x1="20" x2="732" y1="548.8984" y2="548.8984"/><text fill="#000000" font-family="sans-serif" font-size="11" font-weight="bold" lengthAdjust="spacing" textLength="191" x="25" y="559.1089">[Supprimer une observation]</text><polygon fill="#181818" points="475,579.8359,485,583.8359,475,587.8359,479,583.8359" style="stroke:#181818;stroke-width:1.0;"/><line style="stroke:#181818;stroke-width:1.0;" x1="111" x2="481" y1="583.8359" y2="583.8359"/><text fill="#000000" font-family="sans-serif" font-size="13" lengthAdjust="spacing" textLength="275" x="118" y="578.77">Demande de supression d'une observation</text><line style="stroke:#181818;stroke-width:1.0;" x1="487" x2="529" y1="612.9688" y2="612.9688"/><line style="stroke:#181818;stroke-width:1.0;" x1="529" x2="529" y1="612.9688" y2="625.9688"/><line style="stroke:#181818;stroke-width:1.0;" x1="488" x2="529" y1="625.9688" y2="625.9688"/><polygon fill="#181818" points="498,621.9688,488,625.9688,498,629.9688,494,625.9688" style="stroke:#181818;stroke-width:1.0;"/><text fill="#000000" font-family="sans-serif" font-size="13" lengthAdjust="spacing" textLength="187" x="494" y="607.9028">Supression de l'objet célestre</text><path d="M40,640.9688 L106,640.9688 L106,648.1016 L96,658.1016 L40,658.1016 L40,640.9688 " fill="#EEEEEE" style="stroke:#000000;stroke-width:1.5;"/><rect fill="none" height="90.2031" style="stroke:#000000;stroke-width:1.5;" width="495.5" x="40" y="640.9688"/><text fill="#000000" font-family="sans-serif" font-size="13" font-weight="bold" lengthAdjust="spacing" textLength="21" x="55" y="654.0356">alt</text><text fill="#000000" font-family="sans-serif" font-size="11" font-weight="bold" lengthAdjust="spacing" textLength="162" x="121" y="653.1792">[Erreurs de suppression]</text><polygon fill="#181818" points="122,675.2344,112,679.2344,122,683.2344,118,679.2344" style="stroke:#181818;stroke-width:1.0;"/><line style="stroke:#181818;stroke-width:1.0;" x1="116" x2="486" y1="679.2344" y2="679.2344"/><text fill="#000000" font-family="sans-serif" font-size="13" lengthAdjust="spacing" textLength="138" x="128" y="674.1685">Affichage des erreurs</text><line style="stroke:#000000;stroke-width:1.0;stroke-dasharray:2.0,2.0;" x1="40" x2="535.5" y1="688.2344" y2="688.2344"/><text fill="#000000" font-family="sans-serif" font-size="11" font-weight="bold" lengthAdjust="spacing" textLength="195" x="45" y="698.4448">[Pas d'erreurs de suppresion]</text><polygon fill="#181818" points="122,719.1719,112,723.1719,122,727.1719,118,723.1719" style="stroke:#181818;stroke-width:1.0;"/><line style="stroke:#181818;stroke-width:1.0;" x1="116" x2="486" y1="723.1719" y2="723.1719"/><text fill="#000000" font-family="sans-serif" font-size="13" lengthAdjust="spacing" textLength="334" x="128" y="718.106">Affichage validation de suppression de l'observation</text><!--MD5=[fc64035601b40a7526fa930f362d8c1d]
@startuml
alt Modification durée de validité des observations
    Administrateur -> Système : Modifie la durée de validité des observations
    Système ->  Système : Enregistrement de la durée 
    Système -> Administrateur : Affichage validation de la modification
else
    alt Modification d'une observaation
        Administrateur -> Système : Demande de modification d'une observation
        Système -> Administrateur : Affiche le formulaire de modification d'une observation
        Administrateur -> Système : Envoie formulaire modification
        Système -> Système : Validation du formulaire
        alt Formulaire invalide
           Système -> Administrateur : Affichage des erreurs
        else Formulaire valide
           Système -> Système : Enregistrement des modifications
        alt Erreurs de sauvegarde
           Système -> Administrateur : Affichage des erreurs
        else Pas d'erreurs de sauvegarde
           Système -> Administrateur : Affiche une validation de modification 
        end
    end
    else Supprimer une observation
         Administrateur -> Système : Demande de supression d'une observation
         Système -> Système : Supression de l'objet célestre
         alt Erreurs de suppression 
             Système -> Administrateur : Affichage des erreurs 
         else Pas d'erreurs de suppresion
             Système -> Administrateur : Affichage validation de suppression de l'observation 
        end
    end
end
@enduml

PlantUML version 1.2022.13beta2(Unknown compile time)
(GPL source distribution)
Java Runtime: Java(TM) SE Runtime Environment
JVM: Java HotSpot(TM) 64-Bit Server VM
Default Encoding: UTF-8
Language: en
Country: US
--></g></svg>