<?xml version="1.0" encoding="UTF-8" standalone="no"?><svg xmlns="http://www.w3.org/2000/svg" xmlns:xlink="http://www.w3.org/1999/xlink" contentStyleType="text/css" height="413px" preserveAspectRatio="none" style="width:834px;height:413px;background:#FFFFFF;" version="1.1" viewBox="0 0 834 413" width="834px" zoomAndPan="magnify"><defs/><g><rect fill="none" height="307.8047" style="stroke:#000000;stroke-width:1.5;" width="817" x="10" y="53.2969"/><rect fill="none" height="90.2031" style="stroke:#000000;stroke-width:1.5;" width="596.5" x="20" y="148.6953"/><line style="stroke:#181818;stroke-width:0.5;stroke-dasharray:5.0,5.0;" x1="91" x2="91" y1="36.2969" y2="378.1016"/><line style="stroke:#181818;stroke-width:0.5;stroke-dasharray:5.0,5.0;" x1="567.5" x2="567.5" y1="36.2969" y2="378.1016"/><rect fill="#E2E2F0" height="30.2969" rx="2.5" ry="2.5" style="stroke:#181818;stroke-width:0.5;" width="122" x="30" y="5"/><text fill="#000000" font-family="sans-serif" font-size="14" lengthAdjust="spacing" textLength="108" x="37" y="24.9951">Administrateur</text><rect fill="#E2E2F0" height="30.2969" rx="2.5" ry="2.5" style="stroke:#181818;stroke-width:0.5;" width="122" x="30" y="377.1016"/><text fill="#000000" font-family="sans-serif" font-size="14" lengthAdjust="spacing" textLength="108" x="37" y="397.0967">Administrateur</text><rect fill="#E2E2F0" height="30.2969" rx="2.5" ry="2.5" style="stroke:#181818;stroke-width:0.5;" width="77" x="529.5" y="5"/><text fill="#000000" font-family="sans-serif" font-size="14" lengthAdjust="spacing" textLength="63" x="536.5" y="24.9951">Système</text><rect fill="#E2E2F0" height="30.2969" rx="2.5" ry="2.5" style="stroke:#181818;stroke-width:0.5;" width="77" x="529.5" y="377.1016"/><text fill="#000000" font-family="sans-serif" font-size="14" lengthAdjust="spacing" textLength="63" x="536.5" y="397.0967">Système</text><path d="M10,53.2969 L76,53.2969 L76,60.4297 L66,70.4297 L10,70.4297 L10,53.2969 " fill="#EEEEEE" style="stroke:#000000;stroke-width:1.5;"/><rect fill="none" height="307.8047" style="stroke:#000000;stroke-width:1.5;" width="817" x="10" y="53.2969"/><text fill="#000000" font-family="sans-serif" font-size="13" font-weight="bold" lengthAdjust="spacing" textLength="21" x="25" y="66.3638">alt</text><text fill="#000000" font-family="sans-serif" font-size="11" font-weight="bold" lengthAdjust="spacing" textLength="173" x="91" y="65.5073">[Supprimer un utilisateur]</text><polygon fill="#181818" points="556,87.5625,566,91.5625,556,95.5625,560,91.5625" style="stroke:#181818;stroke-width:1.0;"/><line style="stroke:#181818;stroke-width:1.0;" x1="91" x2="562" y1="91.5625" y2="91.5625"/><text fill="#000000" font-family="sans-serif" font-size="13" lengthAdjust="spacing" textLength="250" x="98" y="86.4966">Demande de suppresion de l'utilisateur</text><line style="stroke:#181818;stroke-width:1.0;" x1="568" x2="610" y1="120.6953" y2="120.6953"/><line style="stroke:#181818;stroke-width:1.0;" x1="610" x2="610" y1="120.6953" y2="133.6953"/><line style="stroke:#181818;stroke-width:1.0;" x1="569" x2="610" y1="133.6953" y2="133.6953"/><polygon fill="#181818" points="579,129.6953,569,133.6953,579,137.6953,575,133.6953" style="stroke:#181818;stroke-width:1.0;"/><text fill="#000000" font-family="sans-serif" font-size="13" lengthAdjust="spacing" textLength="171" x="575" y="115.6294">Suppression de l'utilisateur</text><path d="M20,148.6953 L86,148.6953 L86,155.8281 L76,165.8281 L20,165.8281 L20,148.6953 " fill="#EEEEEE" style="stroke:#000000;stroke-width:1.5;"/><rect fill="none" height="90.2031" style="stroke:#000000;stroke-width:1.5;" width="596.5" x="20" y="148.6953"/><text fill="#000000" font-family="sans-serif" font-size="13" font-weight="bold" lengthAdjust="spacing" textLength="21" x="35" y="161.7622">alt</text><text fill="#000000" font-family="sans-serif" font-size="11" font-weight="bold" lengthAdjust="spacing" textLength="155" x="101" y="160.9058">[Erreur de suppression]</text><polygon fill="#181818" points="102,182.9609,92,186.9609,102,190.9609,98,186.9609" style="stroke:#181818;stroke-width:1.0;"/><line style="stroke:#181818;stroke-width:1.0;" x1="96" x2="567" y1="186.9609" y2="186.9609"/><text fill="#000000" font-family="sans-serif" font-size="13" lengthAdjust="spacing" textLength="138" x="108" y="181.895">Affichage des erreurs</text><line style="stroke:#000000;stroke-width:1.0;stroke-dasharray:2.0,2.0;" x1="20" x2="616.5" y1="195.9609" y2="195.9609"/><text fill="#000000" font-family="sans-serif" font-size="11" font-weight="bold" lengthAdjust="spacing" textLength="195" x="25" y="206.1714">[Pas d'erreur de suppression]</text><polygon fill="#181818" points="102,226.8984,92,230.8984,102,234.8984,98,230.8984" style="stroke:#181818;stroke-width:1.0;"/><line style="stroke:#181818;stroke-width:1.0;" x1="96" x2="567" y1="230.8984" y2="230.8984"/><text fill="#000000" font-family="sans-serif" font-size="13" lengthAdjust="spacing" textLength="321" x="108" y="225.8325">Affichage validation de suppression de l'utilisateur</text><line style="stroke:#000000;stroke-width:1.0;stroke-dasharray:2.0,2.0;" x1="10" x2="827" y1="246.8984" y2="246.8984"/><text fill="#000000" font-family="sans-serif" font-size="11" font-weight="bold" lengthAdjust="spacing" textLength="158" x="15" y="257.1089">[Modification d'un rôle]</text><polygon fill="#181818" points="556,277.8359,566,281.8359,556,285.8359,560,281.8359" style="stroke:#181818;stroke-width:1.0;"/><line style="stroke:#181818;stroke-width:1.0;" x1="91" x2="562" y1="281.8359" y2="281.8359"/><text fill="#000000" font-family="sans-serif" font-size="13" lengthAdjust="spacing" textLength="453" x="98" y="276.77">Demande de l'ajout ou du retrait du rôle administrateur à un utilisateur</text><line style="stroke:#181818;stroke-width:1.0;" x1="568" x2="610" y1="310.9688" y2="310.9688"/><line style="stroke:#181818;stroke-width:1.0;" x1="610" x2="610" y1="310.9688" y2="323.9688"/><line style="stroke:#181818;stroke-width:1.0;" x1="569" x2="610" y1="323.9688" y2="323.9688"/><polygon fill="#181818" points="579,319.9688,569,323.9688,579,327.9688,575,323.9688" style="stroke:#181818;stroke-width:1.0;"/><text fill="#000000" font-family="sans-serif" font-size="13" lengthAdjust="spacing" textLength="240" x="575" y="305.9028">Enregistrement du rôle de l'utilisateur</text><polygon fill="#181818" points="102,349.1016,92,353.1016,102,357.1016,98,353.1016" style="stroke:#181818;stroke-width:1.0;"/><line style="stroke:#181818;stroke-width:1.0;" x1="96" x2="567" y1="353.1016" y2="353.1016"/><text fill="#000000" font-family="sans-serif" font-size="13" lengthAdjust="spacing" textLength="313" x="108" y="348.0356">Affichage validation de l'ajout et duretrait du rôle</text><!--MD5=[a07f78d83f12edd2d7b83203f47da443]
@startuml
alt Supprimer un utilisateur
    Administrateur -> Système : Demande de suppresion de l'utilisateur
    Système -> Système : Suppression de l'utilisateur
    alt Erreur de suppression
       Système -> Administrateur : Affichage des erreurs
    else Pas d'erreur de suppression
       Système -> Administrateur : Affichage validation de suppression de l'utilisateur
    end 
else Modification d'un rôle
    Administrateur -> Système : Demande de l'ajout ou du retrait du rôle administrateur à un utilisateur
    Système -> Système : Enregistrement du rôle de l'utilisateur
    Système -> Administrateur : Affichage validation de l'ajout et duretrait du rôle
end
@enduml

PlantUML version 1.2022.13beta2(Unknown compile time)
(GPL source distribution)
Java Runtime: Java(TM) SE Runtime Environment
JVM: Java HotSpot(TM) 64-Bit Server VM
Default Encoding: UTF-8
Language: en
Country: US
--></g></svg>