<?xml version="1.0" encoding="UTF-8" standalone="no"?><svg xmlns="http://www.w3.org/2000/svg" xmlns:xlink="http://www.w3.org/1999/xlink" contentStyleType="text/css" height="1719px" preserveAspectRatio="none" style="width:676px;height:1719px;background:#FFFFFF;" version="1.1" viewBox="0 0 676 1719" width="676px" zoomAndPan="magnify"><defs/><g><!--MD5=[1ad35995ad4960d8224f8500551b0c84]
cluster OpenObservatory--><g id="cluster_OpenObservatory"><rect fill="none" height="1402" rx="2.5" ry="2.5" style="stroke:#181818;stroke-width:1.0;" width="381" x="289" y="214"/><text fill="#000000" font-family="sans-serif" font-size="14" font-weight="bold" lengthAdjust="spacing" textLength="141" x="409" y="228.9951">OpenObservatory</text></g><g id="elem_UC1"><ellipse cx="479.4455" cy="715.1891" fill="#F1F1F1" rx="81.4455" ry="18.6891" style="stroke:#181818;stroke-width:0.5;"/><text fill="#000000" font-family="sans-serif" font-size="14" lengthAdjust="spacing" textLength="122" x="417.3109" y="718.409">Créer un compte</text></g><g id="elem_UC2"><ellipse cx="479.4079" cy="635.7816" fill="#F1F1F1" rx="111.9079" ry="24.7816" style="stroke:#181818;stroke-width:0.5;"/><text fill="#000000" font-family="sans-serif" font-size="14" lengthAdjust="spacing" textLength="190" x="384.4079" y="638.6283">Consulter les observations</text></g><g id="elem_UC3"><ellipse cx="479.3631" cy="796.8726" fill="#F1F1F1" rx="127.3631" ry="27.8726" style="stroke:#181818;stroke-width:0.5;"/><text fill="#000000" font-family="sans-serif" font-size="14" lengthAdjust="spacing" textLength="223" x="367.8631" y="799.7193">Regarder les profils utilisateurs</text></g><g id="elem_UC4"><ellipse cx="479.5751" cy="983.215" fill="#F1F1F1" rx="104.0751" ry="23.215" style="stroke:#181818;stroke-width:0.5;"/><text fill="#000000" font-family="sans-serif" font-size="14" lengthAdjust="spacing" textLength="173" x="393.0751" y="986.0617">Poster des observations</text></g><g id="elem_UC5"><ellipse cx="479.3359" cy="1065.9672" fill="#F1F1F1" rx="112.8359" ry="24.9672" style="stroke:#181818;stroke-width:0.5;"/><text fill="#000000" font-family="sans-serif" font-size="14" lengthAdjust="spacing" textLength="192" x="383.3359" y="1068.8139">Voter sur des observations</text></g><g id="elem_UC6"><ellipse cx="479.2932" cy="1145.9586" fill="#F1F1F1" rx="85.2932" ry="19.4586" style="stroke:#181818;stroke-width:0.5;"/><text fill="#000000" font-family="sans-serif" font-size="14" lengthAdjust="spacing" textLength="131" x="413.7932" y="1148.8053">Modifier son profil</text></g><g id="elem_UC7"><ellipse cx="479.5055" cy="1234.2011" fill="#F1F1F1" rx="156.5055" ry="33.7011" style="stroke:#181818;stroke-width:0.5;"/><text fill="#000000" font-family="sans-serif" font-size="14" lengthAdjust="spacing" textLength="284" x="337.5055" y="1237.0478">Modifier ses paramètres de notification</text></g><g id="elem_UC8"><ellipse cx="479.6551" cy="1321.031" fill="#F1F1F1" rx="78.1551" ry="18.031" style="stroke:#181818;stroke-width:0.5;"/><text fill="#000000" font-family="sans-serif" font-size="14" lengthAdjust="spacing" textLength="114" x="420.2659" y="1324.6166">Se déconnecter</text></g><g id="elem_UC9"><ellipse cx="479.3631" cy="1490.8726" fill="#F1F1F1" rx="127.3631" ry="27.8726" style="stroke:#181818;stroke-width:0.5;"/><text fill="#000000" font-family="sans-serif" font-size="14" lengthAdjust="spacing" textLength="223" x="367.8631" y="1493.7193">Administrer les objets célestes</text></g><g id="elem_UC10"><ellipse cx="479.3655" cy="1400.7731" fill="#F1F1F1" rx="119.3655" ry="26.2731" style="stroke:#181818;stroke-width:0.5;"/><text fill="#000000" font-family="sans-serif" font-size="14" lengthAdjust="spacing" textLength="206" x="376.3655" y="1403.6198">Administrer les observations</text></g><g id="elem_UC11"><ellipse cx="479.2923" cy="1576.7585" fill="#F1F1F1" rx="101.7923" ry="22.7585" style="stroke:#181818;stroke-width:0.5;"/><text fill="#000000" font-family="sans-serif" font-size="14" lengthAdjust="spacing" textLength="168" x="395.2923" y="1579.6051">Gestion des utilisateurs</text></g><g id="elem_Supprimer un utilisateur"><ellipse cx="479.5751" cy="272.215" fill="#F1F1F1" rx="104.0751" ry="23.215" style="stroke:#181818;stroke-width:0.5;"/><text fill="#000000" font-family="sans-serif" font-size="14" lengthAdjust="spacing" textLength="173" x="393.0751" y="275.0617">Supprimer un utilisateur</text></g><g id="elem_Ajouter/Retirer des privilèges à un utilisateur"><ellipse cx="479.4123" cy="367.7825" fill="#F1F1F1" rx="174.4123" ry="37.2825" style="stroke:#181818;stroke-width:0.5;"/><text fill="#000000" font-family="sans-serif" font-size="14" lengthAdjust="spacing" textLength="321" x="318.9123" y="370.6291">Ajouter/Retirer des privilèges à un utilisateur</text></g><g id="elem_Afficher une carte"><ellipse cx="479.3592" cy="459.8718" fill="#F1F1F1" rx="84.8592" ry="19.3718" style="stroke:#181818;stroke-width:0.5;"/><text fill="#000000" font-family="sans-serif" font-size="14" lengthAdjust="spacing" textLength="130" x="414.3592" y="462.7185">Afficher une carte</text></g><g id="elem_Localiser la station ISS"><ellipse cx="479.6626" cy="537.0325" fill="#F1F1F1" rx="98.1626" ry="22.0325" style="stroke:#181818;stroke-width:0.5;"/><text fill="#000000" font-family="sans-serif" font-size="14" lengthAdjust="spacing" textLength="160" x="399.6626" y="539.8792">Localiser la station ISS</text></g><g id="elem_Modifier ses observations"><ellipse cx="479.6701" cy="884.134" fill="#F1F1F1" rx="108.6701" ry="24.134" style="stroke:#181818;stroke-width:0.5;"/><text fill="#000000" font-family="sans-serif" font-size="14" lengthAdjust="spacing" textLength="183" x="388.1701" y="886.9807">Modifier ses observations</text></g><!--MD5=[2d611726bd9fad7d9bb2742aefb86083]
entity v--><g id="elem_v"><ellipse cx="33.5" cy="733" fill="#F1F1F1" rx="16" ry="16" style="stroke:#181818;stroke-width:1.5;"/><path d="M33.5,753 C37.5,753 40.5,753 44.5,749 C52.5,749 60.5,757 60.5,765 L60.5,769 C60.5,773 56.5,777 52.5,777 L14.5,777 C10.5,777 6.5,773 6.5,769 L6.5,765 C6.5,757 14.5,749 22.5,749 C26.5,753 29.5,753 33.5,753 " fill="#F1F1F1" style="stroke:#181818;stroke-width:1.5;"/><text fill="#000000" font-family="sans-serif" font-size="14" lengthAdjust="spacing" textLength="55" x="6" y="791.4951">Visiteur</text></g><!--MD5=[f83ae91a690dfc657e1c5fbbd818f13d]
entity a--><g id="elem_a"><ellipse cx="479.5" cy="1653" fill="#F1F1F1" rx="16" ry="16" style="stroke:#181818;stroke-width:1.5;"/><path d="M479.5,1673 C483.5,1673 486.5,1673 490.5,1669 C498.5,1669 506.5,1677 506.5,1685 L506.5,1689 C506.5,1693 502.5,1697 498.5,1697 L460.5,1697 C456.5,1697 452.5,1693 452.5,1689 L452.5,1685 C452.5,1677 460.5,1669 468.5,1669 C472.5,1673 475.5,1673 479.5,1673 " fill="#F1F1F1" style="stroke:#181818;stroke-width:1.5;"/><text fill="#000000" font-family="sans-serif" font-size="14" lengthAdjust="spacing" textLength="108" x="425.5" y="1711.4951">Administrateur</text></g><!--MD5=[7d46d6cd919e02e6168a09ad91eae8b4]
entity u--><g id="elem_u"><ellipse cx="159.5" cy="1124" fill="#F1F1F1" rx="16" ry="16" style="stroke:#181818;stroke-width:1.5;"/><path d="M159.5,1144 C163.5,1144 166.5,1144 170.5,1140 C178.5,1140 186.5,1148 186.5,1156 L186.5,1160 C186.5,1164 182.5,1168 178.5,1168 L140.5,1168 C136.5,1168 132.5,1164 132.5,1160 L132.5,1156 C132.5,1148 140.5,1140 148.5,1140 C152.5,1144 155.5,1144 159.5,1144 " fill="#F1F1F1" style="stroke:#181818;stroke-width:1.5;"/><text fill="#000000" font-family="sans-serif" font-size="14" lengthAdjust="spacing" textLength="73" x="123" y="1182.4951">Utilisateur</text></g><!--MD5=[292e5a3114c0f5c68837ca2833dd9f72]
entity api1--><g id="elem_api1"><ellipse cx="479.5" cy="136" fill="#F1F1F1" rx="16" ry="16" style="stroke:#181818;stroke-width:1.5;"/><path d="M479.5,156 C483.5,156 486.5,156 490.5,152 C498.5,152 506.5,160 506.5,168 L506.5,172 C506.5,176 502.5,180 498.5,180 L460.5,180 C456.5,180 452.5,176 452.5,172 L452.5,168 C452.5,160 460.5,152 468.5,152 C472.5,156 475.5,156 479.5,156 " fill="#F1F1F1" style="stroke:#181818;stroke-width:1.5;"/><text fill="#000000" font-family="sans-serif" font-size="14" lengthAdjust="spacing" textLength="84" x="437.5" y="194.4951">API externe</text></g><!--MD5=[7175c50600189eb8393c594a0a1e321a]
entity api2--><g id="elem_api2"><ellipse cx="479.5" cy="22" fill="#F1F1F1" rx="16" ry="16" style="stroke:#181818;stroke-width:1.5;"/><path d="M479.5,42 C483.5,42 486.5,42 490.5,38 C498.5,38 506.5,46 506.5,54 L506.5,58 C506.5,62 502.5,66 498.5,66 L460.5,66 C456.5,66 452.5,62 452.5,58 L452.5,54 C452.5,46 460.5,38 468.5,38 C472.5,42 475.5,42 479.5,42 " fill="#F1F1F1" style="stroke:#181818;stroke-width:1.5;"/><text fill="#000000" font-family="sans-serif" font-size="14" lengthAdjust="spacing" textLength="84" x="437.5" y="80.4951">API externe</text></g><!--MD5=[d534cfb8da83b3e1a993b2286e79d85a]
reverse link v to u--><g id="link_v_u"><path d="M53.1197,813.712 C78.6809,894.312 123.961,1037.091 145.895,1106.252 " fill="none" id="v-backto-u" style="stroke:#181818;stroke-width:1.0;"/><polygon fill="none" points="46.4457,815.823,47.0722,794.643,59.7907,811.591,46.4457,815.823" style="stroke:#181818;stroke-width:1.0;"/></g><!--MD5=[06ed1f97a038065ba63baeec153d63f2]
reverse link u to a--><g id="link_u_a"><path d="M168.383,1205.459 C184.481,1318.228 224.449,1557.181 281,1616 C318.575,1655.082 380.845,1668.57 425.423,1673.0694 " fill="none" id="u-backto-a" style="stroke:#181818;stroke-width:1.0;"/><polygon fill="none" points="161.447,1206.402,165.613,1185.626,175.312,1204.465,161.447,1206.402" style="stroke:#181818;stroke-width:1.0;"/></g><!--MD5=[d59765c2cd204dba24fd2f0f3e8c115b]
link UC11 to Supprimer un utilisateur--><g id="link_UC11_Supprimer un utilisateur"><path d="M378.987,1581.061 C342.763,1576.974 304.953,1565.2 281,1537 C213.699,1457.767 265.889,1173.44 264,1069.5 C260.944,901.374 173.311,442.15 281,313 C303.124,286.47 337.471,274.26 371.413,269.28 " fill="none" id="UC11-to-Supprimer un utilisateur" style="stroke:#181818;stroke-width:1.0;stroke-dasharray:7.0,7.0;"/><polygon fill="#181818" points="376.416,268.6,366.959,265.8495,371.4616,269.2739,368.0372,273.7765,376.416,268.6" style="stroke:#181818;stroke-width:1.0;"/><text fill="#000000" font-family="sans-serif" font-size="13" lengthAdjust="spacing" textLength="45" x="227" y="1065.5669">include</text></g><!--MD5=[544f97260231890366b8deb8b5550222]
link UC11 to Ajouter/Retirer des privilèges à un utilisateur--><g id="link_UC11_Ajouter/Retirer des privilèges à un utilisateur"><path d="M378.959,1581.084 C342.731,1577 304.926,1565.223 281,1537 C210.041,1453.299 265.889,1153.215 264,1043.5 C261.625,905.58 195.955,531.6 281,423 C292.386,408.46 307.257,397.55 323.743,389.39 " fill="none" id="UC11-to-Ajouter/Retirer des privilèges à un utilisateur" style="stroke:#181818;stroke-width:1.0;stroke-dasharray:7.0,7.0;"/><polygon fill="#181818" points="328.434,387.16,318.5883,387.4084,323.9176,389.3053,322.0207,394.6346,328.434,387.16" style="stroke:#181818;stroke-width:1.0;"/><text fill="#000000" font-family="sans-serif" font-size="13" lengthAdjust="spacing" textLength="45" x="227" y="1039.5669">include</text></g><!--MD5=[7e275e6be7ff5e40935ccb47e6a1681f]
link UC2 to Afficher une carte--><g id="link_UC2_Afficher une carte"><path d="M374.227,627.45 C314.24,616.63 252.977,592.24 264,537.5 C267.854,518.36 265.806,509.26 281,497 C311.166,472.66 352.3,462.45 389.303,458.69 " fill="none" id="UC2-to-Afficher une carte" style="stroke:#181818;stroke-width:1.0;stroke-dasharray:7.0,7.0;"/><polygon fill="#181818" points="394.73,458.19,385.3962,455.0469,389.7518,458.6563,386.1423,463.012,394.73,458.19" style="stroke:#181818;stroke-width:1.0;"/><text fill="#000000" font-family="sans-serif" font-size="13" lengthAdjust="spacing" textLength="45" x="227" y="550.5669">extend</text></g><!--MD5=[5a8ffff2427f2a7a179e44f9b4d59a0f]
link UC2 to Localiser la station ISS--><g id="link_UC2_Localiser la station ISS"><path d="M479.5,610.76 C479.5,596.58 479.5,578.86 479.5,564.35 " fill="none" id="UC2-to-Localiser la station ISS" style="stroke:#181818;stroke-width:1.0;stroke-dasharray:7.0,7.0;"/><polygon fill="#181818" points="479.5,559.16,475.5,568.16,479.5,564.16,483.5,568.16,479.5,559.16" style="stroke:#181818;stroke-width:1.0;"/><text fill="#000000" font-family="sans-serif" font-size="13" lengthAdjust="spacing" textLength="45" x="445.5" y="589.5669">include</text></g><!--MD5=[1c1462ecd084872f80969dff38ba6e89]
link UC4 to Modifier ses observations--><g id="link_UC4_Modifier ses observations"><path d="M479.5,959.789 C479.5,945.944 479.5,928.234 479.5,913.415 " fill="none" id="UC4-to-Modifier ses observations" style="stroke:#181818;stroke-width:1.0;stroke-dasharray:7.0,7.0;"/><polygon fill="#181818" points="479.5,908.099,475.5,917.099,479.5,913.099,483.5,917.099,479.5,908.099" style="stroke:#181818;stroke-width:1.0;"/><text fill="#000000" font-family="sans-serif" font-size="13" lengthAdjust="spacing" textLength="45" x="445.5" y="938.5669">include</text></g><!--MD5=[c4d2a24489e1d3e9dc7e1c9e9171cf7a]
link api1 to Localiser la station ISS--><g id="link_api1_Localiser la station ISS"><path d="M437.424,160.16 C380.951,165.6 282.639,184.59 238.5,250.5 C181.867,335.07 181.867,394.93 238.5,479.5 C268.701,524.6 327.679,539.21 379.729,542.43 " fill="none" id="api1-to-Localiser la station ISS" style="stroke:#181818;stroke-width:1.0;"/><polygon fill="#181818" points="384.744,542.71,375.9779,538.2205,379.7516,542.4347,375.5374,546.2084,384.744,542.71" style="stroke:#181818;stroke-width:1.0;"/></g><!--MD5=[ea5da5bd22e9c92b8b1125cda41c537f]
link api2 to Afficher une carte--><g id="link_api2_Afficher une carte"><path d="M437.136,42.5 C380.329,43.14 281.632,54.09 238.5,118.5 C203.012,171.49 203.012,352.51 238.5,405.5 C271.682,455.05 339.893,466.86 395.304,467.3 " fill="none" id="api2-to-Afficher une carte" style="stroke:#181818;stroke-width:1.0;"/><polygon fill="#181818" points="400.625,467.31,391.6319,463.2946,395.625,467.3014,391.6182,471.2946,400.625,467.31" style="stroke:#181818;stroke-width:1.0;"/></g><!--MD5=[57284447a55853069fc6131c09a024e9]
link v to UC1--><g id="link_v_UC1"><path d="M62.2742,752.498 C128.365,746.544 297.004,731.351 398.186,722.235 " fill="none" id="v-to-UC1" style="stroke:#181818;stroke-width:1.0;"/><polygon fill="#181818" points="403.252,721.779,393.9294,718.6025,398.2722,722.2276,394.6471,726.5703,403.252,721.779" style="stroke:#181818;stroke-width:1.0;"/></g><!--MD5=[47478400d18531b5a6d71017d85da1cf]
link v to UC2--><g id="link_v_UC2"><path d="M62.1073,737.586 C71.3457,732.321 81.8745,726.907 92,723 C186.184,686.66 299.421,663.39 378.902,650.15 " fill="none" id="v-to-UC2" style="stroke:#181818;stroke-width:1.0;"/><polygon fill="#181818" points="384.088,649.29,374.5549,646.8159,379.1553,650.1078,375.8635,654.7082,384.088,649.29" style="stroke:#181818;stroke-width:1.0;"/></g><!--MD5=[b0162995beec52b4d188a2e5891469e6]
link v to UC3--><g id="link_v_UC3"><path d="M62.2742,757.627 C119.963,763.084 255.787,775.933 356.679,785.476 " fill="none" id="v-to-UC3" style="stroke:#181818;stroke-width:1.0;"/><polygon fill="#181818" points="361.758,785.957,353.1753,781.1262,356.7803,785.4855,352.4209,789.0905,361.758,785.957" style="stroke:#181818;stroke-width:1.0;"/></g><!--MD5=[e2d30219fa55c430fb48f1877f76d979]
link u to UC4--><g id="link_u_UC4"><path d="M171.256,1106.413 C180.932,1078.605 198.026,1042.941 226,1023 C267.845,993.172 323.487,982.142 371.888,979.009 " fill="none" id="u-to-UC4" style="stroke:#181818;stroke-width:1.0;"/><polygon fill="#181818" points="377.149,978.697,367.9282,975.2363,372.1578,978.9927,368.4013,983.2223,377.149,978.697" style="stroke:#181818;stroke-width:1.0;"/></g><!--MD5=[4450909595c331656ee543c78c27ecb9]
link u to UC5--><g id="link_u_UC5"><path d="M196.074,1133.636 C205.746,1130.388 216.244,1126.966 226,1124 C279.358,1107.778 340.262,1093.664 388.886,1083.421 " fill="none" id="u-to-UC5" style="stroke:#181818;stroke-width:1.0;"/><polygon fill="#181818" points="393.851,1082.38,384.2213,1080.3138,388.9576,1083.407,385.8644,1088.1432,393.851,1082.38" style="stroke:#181818;stroke-width:1.0;"/></g><!--MD5=[a4f60d7cc07bd3bf473b475d83a9ea00]
link u to UC6--><g id="link_u_UC6"><path d="M196.053,1146 C242.242,1146 324.52,1146 388.402,1146 " fill="none" id="u-to-UC6" style="stroke:#181818;stroke-width:1.0;"/><polygon fill="#181818" points="393.744,1146,384.744,1142,388.744,1146,384.744,1150,393.744,1146" style="stroke:#181818;stroke-width:1.0;"/></g><!--MD5=[8fd064613625ae3e5b4585df99006133]
link u to UC7--><g id="link_u_UC7"><path d="M196.229,1157.435 C220.14,1164.972 252.358,1174.909 281,1183 C310.316,1191.281 342.231,1199.756 371.688,1207.359 " fill="none" id="u-to-UC7" style="stroke:#181818;stroke-width:1.0;"/><polygon fill="#181818" points="376.774,1208.669,369.0563,1202.5504,371.9321,1207.4217,367.0607,1210.2975,376.774,1208.669" style="stroke:#181818;stroke-width:1.0;"/></g><!--MD5=[1816bb0a9f9709a07a31ddcf9eaeb0fc]
link u to UC8--><g id="link_u_UC8"><path d="M183.967,1185.549 C205.17,1217.62 239.389,1261.261 281,1285 C315.912,1304.917 359.448,1314.195 396.754,1318.378 " fill="none" id="u-to-UC8" style="stroke:#181818;stroke-width:1.0;"/><polygon fill="#181818" points="401.74,1318.911,393.2161,1313.977,396.7683,1318.3795,392.3658,1321.9317,401.74,1318.911" style="stroke:#181818;stroke-width:1.0;"/></g><!--MD5=[f4dfad61f2bc26e2b7762f1f34395ee3]
link a to UC8--><g id="link_a_UC8"><path d="M425.333,1675.6983 C367.538,1673.1089 278.865,1658.7733 238.5,1598.5 C183.103,1515.78 183.103,1457.22 238.5,1374.5 C273.282,1322.562 346.656,1312.439 403.359,1313.344 " fill="none" id="a-to-UC8" style="stroke:#181818;stroke-width:1.0;"/><polygon fill="#181818" points="408.446,1313.455,399.5362,1309.258,403.4472,1313.345,399.3602,1317.256,408.446,1313.455" style="stroke:#181818;stroke-width:1.0;"/></g><!--MD5=[1d5e614dd8463a8829c087e6e23322a4]
link a to UC9--><g id="link_a_UC9"><path d="M425.465,1669.2522 C340.451,1657.8953 189.89,1627.086 238.5,1554.5 C262.561,1518.571 304.564,1501.017 346.834,1492.967 " fill="none" id="a-to-UC9" style="stroke:#181818;stroke-width:1.0;"/><polygon fill="#181818" points="351.988,1492.032,342.4184,1489.7033,347.0684,1492.9248,343.8469,1497.5747,351.988,1492.032" style="stroke:#181818;stroke-width:1.0;"/></g><!--MD5=[25b417a96d9bfabd8a6cff401c5eb3e6]
link a to UC10--><g id="link_a_UC10"><path d="M425.333,1675.6983 C367.538,1673.1089 278.865,1658.7733 238.5,1598.5 C205.114,1548.647 205.114,1513.353 238.5,1463.5 C264.033,1425.374 309.833,1408.12 354.7,1400.985 " fill="none" id="a-to-UC10" style="stroke:#181818;stroke-width:1.0;"/><polygon fill="#181818" points="359.882,1400.204,350.3868,1397.5883,354.9377,1400.9483,351.5777,1405.4992,359.882,1400.204" style="stroke:#181818;stroke-width:1.0;"/></g><!--MD5=[a074ecc9c0856559a9d972dac2aab8fa]
link a to UC11--><g id="link_a_UC11"><path d="M479.5,1635.1875 C479.5,1625.2516 479.5,1615.3158 479.5,1605.38 " fill="none" id="a-to-UC11" style="stroke:#181818;stroke-width:1.0;"/><polygon fill="#181818" points="479.5,1600.184,475.5,1609.184,479.5,1605.184,483.5,1609.184,479.5,1600.184" style="stroke:#181818;stroke-width:1.0;"/></g><!--MD5=[f94496c16b72490c03a5da4121669484]
@startuml
left to right direction 
skinparam packageStyle rectangle
skinparam actorStyle awesome
actor "Visiteur" as v
actor "Administrateur" as a
actor "Utilisateur" as u

v <|- - u
u <|- - a

rectangle OpenObservatory {
  useCase "Créer un compte" as UC1
  useCase "Consulter les observations" as UC2
  useCase "Regarder les profils utilisateurs" as UC3
  useCase "Poster des observations" as UC4
  useCase "Voter sur des observations" as UC5
  useCase "Modifier son profil" as UC6
  useCase "Modifier ses paramètres de notification" as UC7
  useCase "Se déconnecter" as UC8
  useCase "Administrer les objets célestes" as UC9
  useCase "Administrer les observations" as UC10
  useCase "Gestion des utilisateurs" as UC11
  UC11 .> (Supprimer un utilisateur) : include
  UC11 .> (Ajouter/Retirer des privilèges à un utilisateur) : include
  UC2 .> (Afficher une carte) : extend
  UC2 .> (Localiser la station ISS) : include 
  UC4 .> (Modifier ses observations) : include
}

actor "API externe" as api1
actor "API externe" as api2
api1 -> (Localiser la station ISS)
api2 -> (Afficher une carte)
v -> UC1
v -> UC2
v -> UC3
u -> UC4
u -> UC5
u -> UC6
u -> UC7
u -> UC8
a -> UC8
a -> UC9
a -> UC10
a -> UC11
@enduml

PlantUML version 1.2022.13beta2(Unknown compile time)
(GPL source distribution)
Java Runtime: Java(TM) SE Runtime Environment
JVM: Java HotSpot(TM) 64-Bit Server VM
Default Encoding: UTF-8
Language: en
Country: US
--></g></svg>